<?xml version="1.0" encoding="UTF-8"?>
<!DOCTYPE svg PUBLIC "-//W3C//DTD SVG 1.1//EN" "http://www.w3.org/Graphics/SVG/1.1/DTD/svg11.dtd">
<!-- Creator: CorelDRAW 2021 (64-Bit) -->
<svg xmlns="http://www.w3.org/2000/svg" xml:space="preserve" width="100mm" height="100mm" version="1.1" style="shape-rendering:geometricPrecision; text-rendering:geometricPrecision; image-rendering:optimizeQuality; fill-rule:evenodd; clip-rule:evenodd"
viewBox="0 0 10000 10000"
 xmlns:xlink="http://www.w3.org/1999/xlink"
 xmlns:xodm="http://www.corel.com/coreldraw/odm/2003">
 <defs>
  <style type="text/css">
   <![CDATA[
    .str0 {stroke:#666666;stroke-width:20;stroke-miterlimit:22.9256}
    .fil1 {fill:none;fill-rule:nonzero}
    .fil2 {fill:#777777}
    .fil0 {fill:#777777;fill-rule:nonzero}
   ]]>
  </style>
 </defs>
 <g id="Слой_x0020_1">
  <metadata id="CorelCorpID_0Corel-Layer"/>
  <g id="_1495657205344">
   <polygon class="fil0" points="4828.61,762.64 4828.61,1415.73 4694.41,1415.73 4694.41,910.05 4691.09,910.05 4566.71,999.24 4566.71,862.75 4703.97,762.64 "/>
   <path id="_1" class="fil0" d="M4951.85 1415.73l0 -113.59 202.77 -208.47c15.3,-16.16 28.16,-30.98 38.87,-44.45 10.71,-13.46 18.86,-27.08 24.47,-40.85 5.61,-13.77 8.42,-28.59 8.42,-44.75 0,-18.11 -3.32,-33.52 -10.08,-46.39 -6.75,-12.87 -15.92,-22.9 -27.65,-29.93 -11.85,-6.89 -25.23,-10.48 -40.53,-10.48 -15.29,0 -28.8,3.74 -40.4,11.08 -11.6,7.33 -20.65,17.81 -27.02,31.72 -6.5,13.77 -9.68,30.53 -9.68,50.29l-127.32 0c0,-44.45 8.54,-82.76 25.48,-115.09 17.09,-32.32 41.04,-57.17 71.89,-74.82 30.83,-17.51 66.65,-26.19 107.56,-26.19 42.18,0 78.89,8.23 109.99,24.84 31.22,16.61 55.31,39.66 72.39,69.29 17.08,29.78 25.74,64.05 25.74,103.26 0,24.84 -4.34,49.54 -12.87,73.93 -8.41,24.39 -23.71,51.48 -45.75,80.96 -21.93,29.64 -53.15,64.95 -93.55,106.26l-66.53 71.98 0 4.19 225.45 0 0 127.21 -411.65 0z"/>
   <polygon id="_2" class="fil1 str0" points="4828.61,762.64 4828.61,1415.73 4694.41,1415.73 4694.41,910.05 4691.09,910.05 4566.71,999.24 4566.71,862.75 4703.97,762.64 "/>
   <path id="_3" class="fil1 str0" d="M4951.85 1415.73l0 -113.59 202.77 -208.47c15.3,-16.16 28.16,-30.98 38.87,-44.45 10.71,-13.46 18.86,-27.08 24.47,-40.85 5.61,-13.77 8.42,-28.59 8.42,-44.75 0,-18.11 -3.32,-33.52 -10.08,-46.39 -6.75,-12.87 -15.92,-22.9 -27.65,-29.93 -11.85,-6.89 -25.23,-10.48 -40.53,-10.48 -15.29,0 -28.8,3.74 -40.4,11.08 -11.6,7.33 -20.65,17.81 -27.02,31.72 -6.5,13.77 -9.68,30.53 -9.68,50.29l-127.32 0c0,-44.45 8.54,-82.76 25.48,-115.09 17.09,-32.32 41.04,-57.17 71.89,-74.82 30.83,-17.51 66.65,-26.19 107.56,-26.19 42.18,0 78.89,8.23 109.99,24.84 31.22,16.61 55.31,39.66 72.39,69.29 17.08,29.78 25.74,64.05 25.74,103.26 0,24.84 -4.34,49.54 -12.87,73.93 -8.41,24.39 -23.71,51.48 -45.75,80.96 -21.93,29.64 -53.15,64.95 -93.55,106.26l-66.53 71.98 0 4.19 225.45 0 0 127.21 -411.65 0z"/>
   <path class="fil0" d="M4992.84 9253.8c-29.96,0 -58.54,-5.84 -86,-17.36 -27.45,-11.67 -51.78,-30.08 -73.21,-55.52 -21.31,-25.44 -38.23,-58.82 -50.52,-100.12 -12.28,-41.46 -18.3,-91.89 -18.05,-151.3 0.12,-53.88 5.64,-102.07 16.55,-145.02 10.78,-42.8 26.32,-79.17 46.51,-109.1 20.3,-30.08 44.5,-52.98 72.71,-68.84 28.2,-15.71 59.79,-23.64 94.64,-23.64 38.36,0 72.08,8.83 101.42,26.63 29.33,17.66 52.77,41.46 70.33,71.39 17.67,29.78 28.07,63 31.33,99.67l-130.12 0c-3.88,-20.65 -12.54,-36.37 -25.82,-47.14 -13.17,-10.63 -28.96,-16.01 -47.14,-16.01 -33.47,0 -58.42,17.36 -74.84,51.93 -16.55,34.72 -24.95,80.96 -25.32,139.03l3.51 0c7.52,-19.61 18.3,-36.37 32.35,-50.44 14.03,-13.92 30.2,-24.69 48.5,-32.32 18.18,-7.49 37.61,-11.23 58.05,-11.23 32.71,0 61.67,8.98 86.74,27.09 25.2,17.96 44.88,42.8 59.05,74.08 14.29,31.43 21.31,67.19 21.18,107.6 0.13,45.5 -8.77,85.6 -26.69,120.32 -18.05,34.87 -42.88,61.81 -74.72,81.27 -31.72,19.3 -68.57,29.03 -110.44,29.03zm-0.75 -121.22c16.17,0 30.71,-4.64 43.5,-13.77 12.78,-9.13 22.82,-21.55 30.2,-37.26 7.27,-15.72 10.79,-33.53 10.67,-53.28 0.12,-19.9 -3.4,-37.71 -10.54,-53.28 -7.27,-15.41 -17.17,-27.83 -29.96,-36.96 -12.66,-9.13 -27.33,-13.62 -43.62,-13.62 -11.91,0 -23.07,2.54 -33.47,7.93 -10.28,5.24 -19.19,12.72 -26.83,22.15 -7.53,9.43 -13.41,20.5 -17.68,33.22 -4.26,12.57 -6.51,26.19 -6.77,40.86 0.26,19.45 4.02,36.96 11.29,52.68 7.27,15.71 17.29,28.28 29.83,37.41 12.66,9.28 27.08,13.92 43.38,13.92z"/>
   <path id="_1_0" class="fil1 str0" d="M4992.84 9253.8c-29.96,0 -58.54,-5.84 -86,-17.36 -27.45,-11.67 -51.78,-30.08 -73.21,-55.52 -21.31,-25.44 -38.23,-58.82 -50.52,-100.12 -12.28,-41.46 -18.3,-91.89 -18.05,-151.3 0.12,-53.88 5.64,-102.07 16.55,-145.02 10.78,-42.8 26.32,-79.17 46.51,-109.1 20.3,-30.08 44.5,-52.98 72.71,-68.84 28.2,-15.71 59.79,-23.64 94.64,-23.64 38.36,0 72.08,8.83 101.42,26.63 29.33,17.66 52.77,41.46 70.33,71.39 17.67,29.78 28.07,63 31.33,99.67l-130.12 0c-3.88,-20.65 -12.54,-36.37 -25.82,-47.14 -13.17,-10.63 -28.96,-16.01 -47.14,-16.01 -33.47,0 -58.42,17.36 -74.84,51.93 -16.55,34.72 -24.95,80.96 -25.32,139.03l3.51 0c7.52,-19.61 18.3,-36.37 32.35,-50.44 14.03,-13.92 30.2,-24.69 48.5,-32.32 18.18,-7.49 37.61,-11.23 58.05,-11.23 32.71,0 61.67,8.98 86.74,27.09 25.2,17.96 44.88,42.8 59.05,74.08 14.29,31.43 21.31,67.19 21.18,107.6 0.13,45.5 -8.77,85.6 -26.69,120.32 -18.05,34.87 -42.88,61.81 -74.72,81.27 -31.72,19.3 -68.57,29.03 -110.44,29.03zm-0.75 -121.22c16.17,0 30.71,-4.64 43.5,-13.77 12.78,-9.13 22.82,-21.55 30.2,-37.26 7.27,-15.72 10.79,-33.53 10.67,-53.28 0.12,-19.9 -3.4,-37.71 -10.54,-53.28 -7.27,-15.41 -17.17,-27.83 -29.96,-36.96 -12.66,-9.13 -27.33,-13.62 -43.62,-13.62 -11.91,0 -23.07,2.54 -33.47,7.93 -10.28,5.24 -19.19,12.72 -26.83,22.15 -7.53,9.43 -13.41,20.5 -17.68,33.22 -4.26,12.57 -6.51,26.19 -6.77,40.86 0.26,19.45 4.02,36.96 11.29,52.68 7.27,15.71 17.29,28.28 29.83,37.41 12.66,9.28 27.08,13.92 43.38,13.92z"/>
   <path class="fil0" d="M9027.07 5344.51c-41.75,0 -78.61,-8.68 -110.82,-25.74 -32.09,-17.06 -57.42,-40.71 -75.97,-70.94 -18.55,-30.23 -27.95,-64.95 -28.33,-104.31l133 0c0.63,14.22 4.39,26.94 11.54,37.87 7.14,10.92 16.79,19.45 29.08,25.59 12.29,6.28 26.33,9.27 41.99,9.27 15.68,0 29.46,-3.29 41.5,-10.02 12.04,-6.74 21.44,-16.02 28.2,-27.69 6.77,-11.82 10.04,-25.44 9.91,-40.7 0.13,-15.27 -3.51,-28.89 -11.03,-40.86 -7.39,-11.82 -17.92,-21.1 -31.59,-27.69 -13.67,-6.58 -29.72,-9.87 -48.26,-9.87l-53.16 0 0 -112.24 53.16 0c16.29,0 30.58,-3.15 42.87,-9.58 12.41,-6.44 22.06,-15.42 28.96,-26.94 7.02,-11.67 10.4,-24.99 10.15,-40.11 0.25,-14.66 -2.63,-27.53 -8.65,-38.61 -5.89,-11.22 -14.17,-19.9 -24.82,-26.04 -10.53,-6.13 -22.81,-9.28 -36.73,-9.28 -14.55,0 -27.83,3.15 -39.62,9.28 -11.9,6.14 -21.31,14.82 -28.2,26.19 -7.02,11.22 -10.66,24.24 -10.91,39.21l-126.36 0c0.38,-38.91 9.4,-73.18 27.2,-102.81 17.8,-29.78 42.13,-52.98 72.84,-69.74 30.71,-16.76 65.68,-25.14 105.05,-25.14 39.24,0 73.58,8.08 103.42,24.54 29.71,16.31 52.77,38.61 69.45,66.75 16.54,28.13 24.82,60.01 24.82,95.48 0.13,36.81 -9.9,67.04 -30.09,90.99 -20.18,23.79 -46.13,38.46 -77.84,43.99l0 5.09c42.37,5.84 74.33,22.3 96.02,49.09 21.69,26.79 32.34,60.16 32.22,100.42 0,37.86 -9.28,71.38 -27.96,100.57 -18.55,29.18 -44.38,52.23 -77.47,68.84 -32.97,16.76 -70.95,25.14 -113.57,25.14z"/>
   <path id="_1_1" class="fil1 str0" d="M9027.07 5344.51c-41.75,0 -78.61,-8.68 -110.82,-25.74 -32.09,-17.06 -57.42,-40.71 -75.97,-70.94 -18.55,-30.23 -27.95,-64.95 -28.33,-104.31l133 0c0.63,14.22 4.39,26.94 11.54,37.87 7.14,10.92 16.79,19.45 29.08,25.59 12.29,6.28 26.33,9.27 41.99,9.27 15.68,0 29.46,-3.29 41.5,-10.02 12.04,-6.74 21.44,-16.02 28.2,-27.69 6.77,-11.82 10.04,-25.44 9.91,-40.7 0.13,-15.27 -3.51,-28.89 -11.03,-40.86 -7.39,-11.82 -17.92,-21.1 -31.59,-27.69 -13.67,-6.58 -29.72,-9.87 -48.26,-9.87l-53.16 0 0 -112.24 53.16 0c16.29,0 30.58,-3.15 42.87,-9.58 12.41,-6.44 22.06,-15.42 28.96,-26.94 7.02,-11.67 10.4,-24.99 10.15,-40.11 0.25,-14.66 -2.63,-27.53 -8.65,-38.61 -5.89,-11.22 -14.17,-19.9 -24.82,-26.04 -10.53,-6.13 -22.81,-9.28 -36.73,-9.28 -14.55,0 -27.83,3.15 -39.62,9.28 -11.9,6.14 -21.31,14.82 -28.2,26.19 -7.02,11.22 -10.66,24.24 -10.91,39.21l-126.36 0c0.38,-38.91 9.4,-73.18 27.2,-102.81 17.8,-29.78 42.13,-52.98 72.84,-69.74 30.71,-16.76 65.68,-25.14 105.05,-25.14 39.24,0 73.58,8.08 103.42,24.54 29.71,16.31 52.77,38.61 69.45,66.75 16.54,28.13 24.82,60.01 24.82,95.48 0.13,36.81 -9.9,67.04 -30.09,90.99 -20.18,23.79 -46.13,38.46 -77.84,43.99l0 5.09c42.37,5.84 74.33,22.3 96.02,49.09 21.69,26.79 32.34,60.16 32.22,100.42 0,37.86 -9.28,71.38 -27.96,100.57 -18.55,29.18 -44.38,52.23 -77.47,68.84 -32.97,16.76 -70.95,25.14 -113.57,25.14z"/>
   <path class="fil0" d="M958.31 4673.61c29.84,0 58.42,5.68 85.63,17.36 27.32,11.52 51.64,29.93 72.96,55.07 21.43,25.29 38.23,58.36 50.52,99.37 12.28,41.01 18.42,91.14 18.42,150.25 0.13,54.33 -5.14,103.12 -16.04,146.22 -10.91,42.95 -26.46,79.61 -46.64,109.84 -20.18,30.08 -44.5,53.13 -72.71,68.99 -28.32,15.87 -59.92,23.8 -94.89,23.8 -38.49,0 -72.33,-8.98 -101.67,-26.64 -29.21,-17.81 -52.65,-41.75 -70.2,-71.98 -17.55,-30.08 -27.96,-63.91 -31.34,-101.32l130 0c4.13,21.7 12.79,38.01 25.95,48.94 13.16,10.92 28.95,16.31 47.26,16.31 33.47,0 58.54,-17.21 75.08,-51.93 16.56,-34.57 24.82,-81.71 24.82,-141.27l-3.13 0c-7.77,19.6 -18.55,36.36 -32.47,50.43 -14.04,14.07 -30.2,24.69 -48.51,32.17 -18.3,7.49 -37.73,11.23 -57.91,11.23 -32.85,0 -61.68,-8.98 -86.76,-26.79 -24.94,-17.96 -44.62,-42.5 -58.78,-73.63 -14.17,-31.28 -21.32,-67.05 -21.44,-107.15 -0.25,-45.05 8.65,-84.86 26.45,-119.43 17.8,-34.57 42.62,-61.51 74.46,-80.96 31.97,-19.46 68.83,-29.18 110.94,-28.88zm0.76 121.07c-16.42,0 -30.96,4.64 -43.63,13.77 -12.78,9.12 -22.82,21.4 -30.09,36.96 -7.27,15.56 -10.9,32.92 -10.65,52.38 0.12,19.3 3.88,36.66 11.03,52.23 7.27,15.56 17.05,27.83 29.71,36.96 12.54,9.13 26.83,13.77 43.12,13.77 12.04,0 23.32,-2.69 33.6,-8.08 10.28,-5.24 19.31,-12.57 26.95,-22.15 7.65,-9.43 13.67,-20.35 18.06,-32.92 4.38,-12.57 6.52,-25.89 6.26,-40.26 -0.12,-18.86 -3.88,-36.07 -11.15,-51.63 -7.4,-15.42 -17.3,-27.84 -30.09,-37.12 -12.78,-9.27 -27.07,-13.91 -43.12,-13.91z"/>
   <path id="_1_2" class="fil1 str0" d="M958.31 4673.61c29.84,0 58.42,5.68 85.63,17.36 27.32,11.52 51.64,29.93 72.96,55.07 21.43,25.29 38.23,58.36 50.52,99.37 12.28,41.01 18.42,91.14 18.42,150.25 0.13,54.33 -5.14,103.12 -16.04,146.22 -10.91,42.95 -26.46,79.61 -46.64,109.84 -20.18,30.08 -44.5,53.13 -72.71,68.99 -28.32,15.87 -59.92,23.8 -94.89,23.8 -38.49,0 -72.33,-8.98 -101.67,-26.64 -29.21,-17.81 -52.65,-41.75 -70.2,-71.98 -17.55,-30.08 -27.96,-63.91 -31.34,-101.32l130 0c4.13,21.7 12.79,38.01 25.95,48.94 13.16,10.92 28.95,16.31 47.26,16.31 33.47,0 58.54,-17.21 75.08,-51.93 16.56,-34.57 24.82,-81.71 24.82,-141.27l-3.13 0c-7.77,19.6 -18.55,36.36 -32.47,50.43 -14.04,14.07 -30.2,24.69 -48.51,32.17 -18.3,7.49 -37.73,11.23 -57.91,11.23 -32.85,0 -61.68,-8.98 -86.76,-26.79 -24.94,-17.96 -44.62,-42.5 -58.78,-73.63 -14.17,-31.28 -21.32,-67.05 -21.44,-107.15 -0.25,-45.05 8.65,-84.86 26.45,-119.43 17.8,-34.57 42.62,-61.51 74.46,-80.96 31.97,-19.46 68.83,-29.18 110.94,-28.88zm0.76 121.07c-16.42,0 -30.96,4.64 -43.63,13.77 -12.78,9.12 -22.82,21.4 -30.09,36.96 -7.27,15.56 -10.9,32.92 -10.65,52.38 0.12,19.3 3.88,36.66 11.03,52.23 7.27,15.56 17.05,27.83 29.71,36.96 12.54,9.13 26.83,13.77 43.12,13.77 12.04,0 23.32,-2.69 33.6,-8.08 10.28,-5.24 19.31,-12.57 26.95,-22.15 7.65,-9.43 13.67,-20.35 18.06,-32.92 4.38,-12.57 6.52,-25.89 6.26,-40.26 -0.12,-18.86 -3.88,-36.07 -11.15,-51.63 -7.4,-15.42 -17.3,-27.84 -30.09,-37.12 -12.78,-9.27 -27.07,-13.91 -43.12,-13.91z"/>
   <rect class="fil2 str0" transform="matrix(0.12301 -0.212848 0.5511 0.317863 1289.04 2939.73)" width="330.42" height="556.09"/>
   <rect class="fil2 str0" transform="matrix(0.213059 -0.122888 0.318177 0.550554 2825.03 1372.64)" width="330.42" height="556.09"/>
   <rect class="fil2 str0" transform="matrix(0.213059 0.122888 -0.318177 0.550554 7066.05 1328.09)" width="330.42" height="556.09"/>
   <rect class="fil2 str0" transform="matrix(0.12301 0.212848 -0.5511 0.317863 8634.69 2862.57)" width="330.42" height="556.09"/>
   <rect class="fil2 str0" transform="matrix(0.12301 -0.212848 0.5511 0.317863 8332.17 6992.96)" width="330.42" height="556.09"/>
   <rect class="fil2 str0" transform="matrix(0.213059 -0.122888 0.318177 0.550554 6895.94 8400.92)" width="330.42" height="556.09"/>
   <rect class="fil2 str0" transform="matrix(0.213059 0.122888 -0.318177 0.550554 3008.8 8364.26)" width="330.42" height="556.09"/>
   <rect class="fil2 str0" transform="matrix(0.12301 0.212848 -0.5511 0.317863 1599.44 6929.45)" width="330.42" height="556.09"/>
  </g>
 </g>
</svg>
